<?xml version="1.0" encoding="UTF-8"?>
<svg id="Capa_2" data-name="Capa 2" xmlns="http://www.w3.org/2000/svg" viewBox="0 0 213.97 168.01">
  <defs>
    <style>
      .cls-1 {
        fill: #e4b363;
      }

      .cls-2 {
        fill: #6c8e7f;
      }

      .cls-3 {
        fill: #24324a;
      }
    </style>
  </defs>
  <g id="Capa_1-2" data-name="Capa 1">
    <g>
      <path class="cls-3" d="M97.61,67.52c-9.04-11.64-20.04-25.33-29.06-36.98-3.23-3.88-8.19-10.31-11.47-14.31-3.29-4.13-7.52-9.52-12.32-11.89-9.31-5.65-22.24-5.84-31.31.44C6.37,9.53,1.92,17.21.62,25.58c0,0,0,.02,0,.03C.22,28.29.02,31,.02,33.71c0,11.48,0,43.47-.01,68.53h0v1.01c0,13.22,0,31.52,0,31.52,0,0,.01.03.03.07.21,4.71,4.08,8.46,8.84,8.47,4.9.01,8.9-4.21,8.9-9.1v-.3c.15-3.22.09-7.32,0-10.21v-8.67c.01-21.86.06-51.41.02-70.81.36-6.06-1.28-14.77,2.29-20.13,3.48-5.94,11.94-6.37,17.07-2.47,7.73,7.34,13.96,16.65,20.79,24.83,12.06,14.7,24.86,31.15,36.66,46.12,3.65,4.84,8.77,7.45,14.44,7.37v-20.44c-2.47-.24-5.37-3.97-11.43-11.97Z"/>
      <path class="cls-2" d="M125.51,89.35c3.54-4.68,8.79-11.74,12.46-16.39,8.81-11.46,20.15-26.32,28.9-37.79,4.1-4.52,9.05-13.83,15.11-15.6,6.05-1.94,12.45,2.36,13.5,8.51l.28,1.66c.29,1.68.43,3.38.43,5.09l.02,110.32c0,1.25-.38,2.49-1.16,3.47-1.39,1.75-2.8,1.39-5.21,1.4,0,0-13.94.02-13.94.02-3.76-.12-12.7.34-16.35-.47-8.64-1.99-14.23-10.27-13.3-18.95.37-5.27,5.34-11.64,9.04-16.5l3.55-4.7,10.92-14.31s-5.54-4.14-1.55-3.89c2.66-3.88-1.16-.87-4.95-3.75-3.9-2.96-3.31-7.21-6.26-3.3l-1.02-.5c-2.06,2.48-3.93,5.1-5.59,7.47l-5.23,6.92c-1.28,1.7-2.62,3.46-3.98,5.26-4.81,6.15-9.62,12.8-11.54,19.43-4.99,15.61,2.49,34.14,17.32,41.46,7.73,4.45,17.38,3.78,25.92,3.78,6.86,0,17.77,0,24.63-.07,8.13-.51,15.2-6.8,16.08-15,.24-1.29.36-2.59.36-3.89,0-15.66,0-119.81,0-119.81-.22-1.15-.44-3.62-.59-4.76-2.39-15.84-18.36-27.76-34.18-23.61-8.8,1.9-15.49,8.32-20.41,15.54-1.87,2.4-9.4,12.48-11.34,15.02-7.38,9.94-16.62,22.03-24.02,31.91-8.49,10.5-11.06,16.5-14.38,16.19v20.44c1.23-.02,2.49-.16,3.76-.43,5.61-1.12,9.48-5.82,12.71-10.15Z"/>
      <circle class="cls-1" cx="162.44" cy="89.91" r="8.98"/>
    </g>
  </g>
</svg>