<?xml version="1.0" encoding="UTF-8"?>
<svg id="Capa_2" data-name="Capa 2" xmlns="http://www.w3.org/2000/svg" viewBox="0 0 662.5 662.58">
  <defs>
    <style>
      .cls-1 {
        fill: #ffba00;
      }

      .cls-2 {
        fill: #4285f4;
      }

      .cls-3 {
        fill: #ea4435;
      }

      .cls-4 {
        fill: #00ac47;
      }
    </style>
  </defs>
  <g id="Layer_1" data-name="Layer 1">
    <path class="cls-4" d="M525,331.26c.07,106.93-86.56,193.67-193.49,193.74-81.72.05-154.67-51.2-182.32-128.1l-110.82,88.65c85.13,161.83,285.34,224.01,447.18,138.88,108.86-57.27,177.01-170.17,176.95-293.18"/>
    <path class="cls-2" d="M525,331.26c-.05,62.54-30.33,121.2-81.29,157.47l109.56,87.65c69.48-62.55,109.17-151.63,109.23-245.11"/>
    <path class="cls-1" d="M137.5,331.26c.05-22.4,4-44.61,11.69-65.65l-110.82-88.65c-51.16,96.51-51.16,212.1,0,308.61l110.82-88.65c-7.69-21.04-11.64-43.25-11.69-65.65Z"/>
    <path class="cls-3" d="M331.25,137.51c41,.01,80.92,13.11,113.95,37.4l101.5-94.73C408.51-38.98,199.89-23.54,80.75,114.65c-16.45,19.08-30.67,39.99-42.37,62.3l110.82,88.65c27.69-76.75,100.46-127.96,182.06-128.1Z"/>
    <path class="cls-2" d="M662.5,306.26v25l-56.25,87.5h-262.5v-137.5h293.75c13.81,0,25,11.19,25,25Z"/>
  </g>
</svg>