<?xml version="1.0" encoding="UTF-8"?>
<svg id="Capa_2" data-name="Capa 2" xmlns="http://www.w3.org/2000/svg" viewBox="0 0 838.43 168.01">
  <defs>
    <style>
      .cls-1 {
        fill: #e4b363;
      }

      .cls-2 {
        fill: #6c8e7f;
      }

      .cls-3 {
        fill: #24324a;
      }
    </style>
  </defs>
  <g id="Capa_1-2" data-name="Capa 1">
    <g>
      <path class="cls-3" d="M327.7,50.69v11.36h-29.25v17.99h22.41v11.16h-22.41v29.65h-14.07V50.69h43.32Z"/>
      <path class="cls-3" d="M338.6,56.17c-1.64-1.57-2.46-3.53-2.46-5.88s.82-4.3,2.46-5.88c1.64-1.57,3.7-2.36,6.18-2.36s4.54.79,6.18,2.36c1.64,1.58,2.46,3.53,2.46,5.88s-.82,4.31-2.46,5.88c-1.64,1.57-3.7,2.36-6.18,2.36s-4.54-.79-6.18-2.36ZM351.72,65.16v55.68h-14.07v-55.68h14.07Z"/>
      <path class="cls-3" d="M412.52,70.64c4.09,4.19,6.13,10.03,6.13,17.54v32.66h-14.07v-30.75c0-4.42-1.11-7.82-3.32-10.2-2.21-2.38-5.23-3.57-9.04-3.57s-6.95,1.19-9.2,3.57c-2.25,2.38-3.37,5.78-3.37,10.2v30.75h-14.07v-55.68h14.07v6.93c1.88-2.41,4.27-4.3,7.19-5.68,2.91-1.37,6.11-2.06,9.6-2.06,6.63,0,11.99,2.09,16.08,6.28Z"/>
      <path class="cls-3" d="M431.76,77.83c2.24-4.35,5.29-7.7,9.15-10.05,3.85-2.34,8.16-3.52,12.91-3.52,4.15,0,7.79.84,10.9,2.51,3.12,1.68,5.61,3.79,7.49,6.33v-7.94h14.17v55.68h-14.17v-8.14c-1.81,2.61-4.31,4.77-7.49,6.48-3.18,1.71-6.85,2.56-11,2.56-4.69,0-8.96-1.21-12.81-3.62-3.85-2.41-6.9-5.81-9.15-10.2-2.25-4.39-3.37-9.43-3.37-15.12s1.12-10.62,3.37-14.97ZM470.21,84.21c-1.34-2.45-3.15-4.32-5.43-5.63-2.28-1.31-4.72-1.96-7.34-1.96s-5.03.64-7.24,1.91c-2.21,1.27-4,3.13-5.38,5.58-1.37,2.45-2.06,5.34-2.06,8.69s.69,6.28,2.06,8.79c1.37,2.51,3.18,4.44,5.43,5.78,2.24,1.34,4.64,2.01,7.19,2.01s5.06-.65,7.34-1.96c2.28-1.31,4.09-3.18,5.43-5.63,1.34-2.45,2.01-5.38,2.01-8.79s-.67-6.35-2.01-8.79Z"/>
      <path class="cls-3" d="M547.09,70.64c4.09,4.19,6.13,10.03,6.13,17.54v32.66h-14.07v-30.75c0-4.42-1.11-7.82-3.32-10.2-2.21-2.38-5.23-3.57-9.04-3.57s-6.95,1.19-9.2,3.57c-2.25,2.38-3.37,5.78-3.37,10.2v30.75h-14.07v-55.68h14.07v6.93c1.88-2.41,4.27-4.3,7.19-5.68,2.91-1.37,6.11-2.06,9.6-2.06,6.63,0,11.99,2.09,16.08,6.28Z"/>
      <path class="cls-3" d="M579.45,109.28h24.82v11.56h-40.8v-11.36l24.32-32.76h-24.22v-11.56h40.4v11.36l-24.52,32.76Z"/>
      <path class="cls-3" d="M614.87,77.83c2.24-4.35,5.29-7.7,9.15-10.05,3.85-2.34,8.16-3.52,12.91-3.52,4.15,0,7.79.84,10.9,2.51,3.12,1.68,5.61,3.79,7.49,6.33v-7.94h14.17v55.68h-14.17v-8.14c-1.81,2.61-4.31,4.77-7.49,6.48-3.18,1.71-6.85,2.56-11,2.56-4.69,0-8.96-1.21-12.81-3.62-3.85-2.41-6.9-5.81-9.15-10.2-2.25-4.39-3.37-9.43-3.37-15.12s1.12-10.62,3.37-14.97ZM653.31,84.21c-1.34-2.45-3.15-4.32-5.43-5.63-2.28-1.31-4.72-1.96-7.34-1.96s-5.03.64-7.24,1.91c-2.21,1.27-4,3.13-5.38,5.58-1.37,2.45-2.06,5.34-2.06,8.69s.69,6.28,2.06,8.79c1.37,2.51,3.18,4.44,5.43,5.78,2.24,1.34,4.64,2.01,7.19,2.01s5.06-.65,7.34-1.96c2.28-1.31,4.09-3.18,5.43-5.63,1.34-2.45,2.01-5.38,2.01-8.79s-.67-6.35-2.01-8.79Z"/>
      <path class="cls-3" d="M692.31,119.28c-3.62-1.64-6.48-3.87-8.59-6.68-2.11-2.81-3.27-5.93-3.47-9.35h14.17c.27,2.15,1.32,3.92,3.17,5.33,1.84,1.41,4.14,2.11,6.88,2.11s4.77-.54,6.28-1.61c1.51-1.07,2.26-2.45,2.26-4.12,0-1.81-.92-3.17-2.76-4.07-1.84-.91-4.77-1.89-8.79-2.96-4.16-1-7.55-2.04-10.2-3.12-2.65-1.07-4.92-2.71-6.83-4.92-1.91-2.21-2.86-5.19-2.86-8.95,0-3.08.89-5.89,2.66-8.44,1.77-2.55,4.32-4.56,7.64-6.03,3.32-1.47,7.22-2.21,11.71-2.21,6.63,0,11.92,1.66,15.88,4.97,3.95,3.32,6.13,7.79,6.53,13.42h-13.47c-.2-2.21-1.12-3.97-2.76-5.28-1.64-1.31-3.84-1.96-6.58-1.96-2.55,0-4.51.47-5.88,1.41-1.37.94-2.06,2.25-2.06,3.92,0,1.88.94,3.3,2.81,4.27,1.88.97,4.79,1.96,8.74,2.96,4.02,1,7.34,2.04,9.95,3.12,2.61,1.07,4.87,2.73,6.78,4.97,1.91,2.25,2.9,5.21,2.96,8.89,0,3.22-.89,6.1-2.66,8.64-1.78,2.55-4.32,4.54-7.64,5.98-3.32,1.44-7.19,2.16-11.61,2.16s-8.64-.82-12.26-2.46Z"/>
      <path class="cls-3" d="M838.43,50.69v70.15h-14.07v-45.63l-18.79,45.63h-10.65l-18.89-45.63v45.63h-14.07V50.69h15.98l22.31,52.16,22.31-52.16h15.88Z"/>
      <g>
        <path class="cls-3" d="M97.61,67.52c-9.04-11.64-20.04-25.33-29.06-36.98-3.23-3.88-8.19-10.31-11.47-14.31-3.29-4.13-7.52-9.52-12.32-11.89-9.31-5.65-22.24-5.84-31.31.44C6.37,9.53,1.92,17.21.62,25.58c0,0,0,.02,0,.03C.22,28.29.02,31,.02,33.71c0,11.48,0,43.47-.01,68.53h0v1.01c0,13.22,0,31.52,0,31.52,0,0,.01.03.03.07.21,4.71,4.08,8.46,8.84,8.47,4.9.01,8.9-4.21,8.9-9.1v-.3c.15-3.22.09-7.32,0-10.21v-8.67c.01-21.86.06-51.41.02-70.81.36-6.06-1.28-14.77,2.29-20.13,3.48-5.94,11.94-6.37,17.07-2.47,7.73,7.34,13.96,16.65,20.79,24.83,12.06,14.7,24.86,31.15,36.66,46.12,3.65,4.84,8.77,7.45,14.44,7.37v-20.44c-2.47-.24-5.37-3.97-11.43-11.97Z"/>
        <path class="cls-2" d="M125.51,89.35c3.54-4.68,8.79-11.74,12.46-16.39,8.81-11.46,20.15-26.32,28.9-37.79,4.1-4.52,9.05-13.83,15.11-15.6,6.05-1.94,12.45,2.36,13.5,8.51l.28,1.66c.29,1.68.43,3.38.43,5.09l.02,110.32c0,1.25-.38,2.49-1.16,3.47-1.39,1.75-2.8,1.39-5.21,1.4,0,0-13.94.02-13.94.02-3.76-.12-12.7.34-16.35-.47-8.64-1.99-14.23-10.27-13.3-18.95.37-5.27,5.34-11.64,9.04-16.5l3.55-4.7,10.92-14.31s-5.54-4.14-1.55-3.89c2.66-3.88-1.16-.87-4.95-3.75-3.9-2.96-3.31-7.21-6.26-3.3l-1.02-.5c-2.06,2.48-3.93,5.1-5.59,7.47l-5.23,6.92c-1.28,1.7-2.62,3.46-3.98,5.26-4.81,6.15-9.62,12.8-11.54,19.43-4.99,15.61,2.49,34.14,17.32,41.46,7.73,4.45,17.38,3.78,25.92,3.78,6.86,0,17.77,0,24.63-.07,8.13-.51,15.2-6.8,16.08-15,.24-1.29.36-2.59.36-3.89,0-15.66,0-119.81,0-119.81-.22-1.15-.44-3.62-.59-4.76-2.39-15.84-18.36-27.76-34.18-23.61-8.8,1.9-15.49,8.32-20.41,15.54-1.87,2.4-9.4,12.48-11.34,15.02-7.38,9.94-16.62,22.03-24.02,31.91-8.49,10.5-11.06,16.5-14.38,16.19v20.44c1.23-.02,2.49-.16,3.76-.43,5.61-1.12,9.48-5.82,12.71-10.15Z"/>
        <circle class="cls-1" cx="162.44" cy="89.91" r="8.98"/>
      </g>
    </g>
  </g>
</svg>