<?xml version="1.0" encoding="UTF-8"?>
<svg id="b" data-name="Capa 2" xmlns="http://www.w3.org/2000/svg" viewBox="0 0 363.562 363.562">
  <g id="c" data-name="Capa 1">
    <g>
      <rect width="363.562" height="363.562" rx="47.457" ry="47.457" fill="#1d5260"/>
      <g id="d" data-name="Objeto generativo">
        <path d="M181.498,117.601v48.899c0,8.381,3.015,15.848,9.82,20.755,5.7,4.039,11.985,5.348,19.025,5.228-11.662,6.762-26.185,8.203-39.526,7.014-6.982-.622-13.645-2.131-20.02-4.987-6.522-2.873-11.676-6.964-16.283-12.356l-.002-82.386c5.384-3.477,11.036-6.52,16.996-9.052,7.573-3.218,15.183-5.774,23.24-7.483,7.218-1.729,14.389-2.612,21.8-3.152,14.951-1.088,31.496.495,45.868,4.621,11.127,3.194,22.592,9.351,30.558,17.8,12.032,13.161,16.585,29.557,17.276,47.275l-47.016.023c-.283-7.367-1.257-14.279-4.905-20.78-3.569-5.941-8.95-10.222-15.461-12.593-11.43-4.162-23.806-4.389-35.454-1.053l-5.916,2.226Z" fill="#fcfdfd"/>
        <path d="M290.26,156.237c-1.032,17.569-8.607,33.112-20.502,45.798-7.301,7.786-15.983,14.053-25.448,19.014-8.331,4.368-17.14,7.458-26.246,9.733l-12.104,2.445c-19.545,2.881-39.39,2.329-58.711-1.893-6.991-1.528-13.697-3.677-20.258-6.422-25.993-10.875-46.091-31.71-53.689-59.177l5.787-2.54,7.432-3.44,25.47-11.612c2.795,13.214,7.965,26.144,16.436,36.605,1.33,1.942,3.004,3.402,4.594,5.082,1.404,1.484,2.835,2.637,4.438,3.918,4.991,3.986,10.606,6.861,16.698,8.843,3.017.982,5.842,1.72,9.002,2.248,7.849,1.312,15.721,1.745,23.693,1.104,10.241-.823,20.146-3.85,28.889-9.191,14.316-8.777,25.561-23.545,27.569-40.527l46.95.012Z" fill="#47e413"/>
        <path d="M181.433,277.631c-.012,3.921-3.436,6.186-6.925,6.183l-32.667-.023c-3.747.214-6.847-2.358-7.347-6.075l-.031-43.364c8.262,2.753,16.529,4.475,25.096,5.584,7.342.95,14.476,1.513,21.989,1.422l-.115,36.273Z" fill="#fcfdfd"/>
      </g>
    </g>
  </g>
</svg>