<?xml version="1.0" encoding="UTF-8"?>
<svg id="b" data-name="Capa 2" xmlns="http://www.w3.org/2000/svg" viewBox="0 0 363.562 363.562">
  <g id="c" data-name="Capa 1">
    <g>
      <rect width="363.562" height="363.562" rx="47.457" ry="47.457" fill="#fff"/>
      <g id="d" data-name="Objeto generativo">
        <g>
          <polygon points="98.106 178.256 72.506 152.656 181.756 43.456 207.326 68.926 291.046 152.576 188.776 254.736 181.736 261.656 147.416 227.276 140.166 219.946 131.436 211.116 151.046 191.666 157.096 185.636 181.706 210.216 191.386 200.766 239.616 152.586 194.746 107.776 191.086 104.096 186.606 99.746 181.776 94.856 119.916 156.576 98.106 178.256" fill="#fdfdfd"/>
          <polygon points="291.056 211.226 265.906 236.336 256.166 245.906 198.376 303.596 181.766 320.106 109.776 248.276 72.536 211.156 79.906 203.846 87.876 195.926 155.086 128.956 181.826 102.346 232.216 152.676 221.326 163.486 209.696 174.956 206.586 178.256 181.796 153.466 127.496 207.746 123.896 211.366 181.816 269.246 265.466 185.706 291.056 211.226" fill="#fdfdfd"/>
          <polygon points="291.046 152.576 188.776 254.736 181.736 261.656 147.416 227.276 140.166 219.946 131.436 211.116 151.046 191.666 157.096 185.636 181.706 210.216 191.386 200.766 239.616 152.586 194.746 107.776 191.086 104.096 186.606 99.746 181.776 94.856 119.916 156.576 98.106 178.256 72.506 152.656 181.756 43.456 207.326 68.926 291.046 152.576" fill="#1773b0"/>
          <polygon points="291.056 211.226 265.906 236.336 256.166 245.906 198.376 303.596 181.766 320.106 109.776 248.276 72.536 211.156 79.906 203.846 87.876 195.926 155.086 128.956 181.826 102.346 232.216 152.676 221.326 163.486 209.696 174.956 206.586 178.256 181.796 153.466 127.496 207.746 123.896 211.366 181.816 269.246 265.466 185.706 291.056 211.226" fill="#1b75b2"/>
        </g>
      </g>
    </g>
  </g>
</svg>